<svg width="40" height="40" viewBox="0 0 40 40" fill="none" xmlns="http://www.w3.org/2000/svg"><g clip-path="url(#a)"><g filter="url(#b)"><path d="m8.814 11.156 3.45-6.394.475-.76c.683-.97 1.834-1.717 3.249-2.221l.71-.253c4.845-1.131 10.433.763 14.847 2.978a51.144 51.144 0 0 1 7.016 4.283c.167.122.298.221.392.292l-4.141 7.379-10.905-2.281-.056-.012-.055.014c-3.055.754-6.357.001-8.957-1.767l-.04-.028-.05-.01-5.935-1.22Z" stroke="#01FFF4" stroke-width=".5"/></g><g opacity=".3" filter="url(#c)"><path d="m8.814 11.156 3.45-6.394.475-.76c.683-.97 1.834-1.717 3.249-2.221l.71-.253c4.845-1.131 10.433.763 14.847 2.978a51.144 51.144 0 0 1 7.016 4.283c.167.122.298.221.392.292l-4.141 7.379-10.905-2.281-.056-.012-.055.014c-3.055.754-6.357.001-8.957-1.767l-.04-.028-.05-.01-5.935-1.22Z" stroke="#01FFF4" stroke-width=".5"/></g><g filter="url(#d)"><path d="m34.224 16.516.199.147-14.503 5.25c-3.986 1.251-8.928-.507-11.277-3.764-1.048-1.747-1.27-3.6-.755-5.16.515-1.558 1.773-2.854 3.748-3.477l.956-.255c4.726-1.135 10.257.758 14.645 2.975a51.565 51.565 0 0 1 6.987 4.284Z" stroke="#01FFF4" stroke-width=".5"/></g><g opacity=".3" filter="url(#e)"><path d="m34.224 16.516.199.147-14.503 5.25c-3.986 1.251-8.928-.507-11.277-3.764-1.048-1.747-1.27-3.6-.755-5.16.515-1.558 1.773-2.854 3.748-3.477l.956-.255c4.726-1.135 10.257.758 14.645 2.975a51.565 51.565 0 0 1 6.987 4.284Z" stroke="#01FFF4" stroke-width=".5"/></g><g filter="url(#f)"><path d="M32.55 26.412v.002l-4.735 9.109-26.469-4.8 4.611-8.625 14.845-5.119a9.926 9.926 0 0 1 6.177.044c2.006.67 3.783 1.964 5.102 3.72 1.169 2.007 1.379 3.968.47 5.669Z" stroke="#01FFF4" stroke-width=".5"/></g><g filter="url(#g)"><path d="M27.47 29.62c-1.35-1.801-3.17-3.132-5.231-3.82a10.176 10.176 0 0 0-6.335-.043l-14.94 5.15s12.771 10.304 22.65 7.728l.723-.258c4.097-1.288 5.543-5.409 3.133-8.757Z" stroke="#01FFF4" stroke-width=".5"/></g></g><defs><filter id="b" x="6.434" y="-1.059" width="34.843" height="19.801" filterUnits="userSpaceOnUse" color-interpolation-filters="sRGB"><feFlood flood-opacity="0" result="BackgroundImageFix"/><feColorMatrix in="SourceAlpha" values="0 0 0 0 0 0 0 0 0 0 0 0 0 0 0 0 0 0 127 0" result="hardAlpha"/><feOffset/><feGaussianBlur stdDeviation="1"/><feColorMatrix values="0 0 0 0 0.00392157 0 0 0 0 1 0 0 0 0 0.956863 0 0 0 1 0"/><feBlend in2="BackgroundImageFix" result="effect1_dropShadow_406_36691"/><feBlend in="SourceGraphic" in2="effect1_dropShadow_406_36691" result="shape"/></filter><filter id="c" x="6.434" y="-1.059" width="34.843" height="19.801" filterUnits="userSpaceOnUse" color-interpolation-filters="sRGB"><feFlood flood-opacity="0" result="BackgroundImageFix"/><feColorMatrix in="SourceAlpha" values="0 0 0 0 0 0 0 0 0 0 0 0 0 0 0 0 0 0 127 0" result="hardAlpha"/><feOffset/><feGaussianBlur stdDeviation="1"/><feColorMatrix values="0 0 0 0 0.00392157 0 0 0 0 1 0 0 0 0 0.956863 0 0 0 1 0"/><feBlend in2="BackgroundImageFix" result="effect1_dropShadow_406_36691"/><feBlend in="SourceGraphic" in2="effect1_dropShadow_406_36691" result="shape"/></filter><filter id="d" x="5.372" y="6.667" width="31.568" height="17.901" filterUnits="userSpaceOnUse" color-interpolation-filters="sRGB"><feFlood flood-opacity="0" result="BackgroundImageFix"/><feColorMatrix in="SourceAlpha" values="0 0 0 0 0 0 0 0 0 0 0 0 0 0 0 0 0 0 127 0" result="hardAlpha"/><feOffset/><feGaussianBlur stdDeviation="1"/><feColorMatrix values="0 0 0 0 0.00392157 0 0 0 0 1 0 0 0 0 0.956863 0 0 0 1 0"/><feBlend in2="BackgroundImageFix" result="effect1_dropShadow_406_36691"/><feBlend in="SourceGraphic" in2="effect1_dropShadow_406_36691" result="shape"/></filter><filter id="e" x="5.372" y="6.667" width="31.568" height="17.901" filterUnits="userSpaceOnUse" color-interpolation-filters="sRGB"><feFlood flood-opacity="0" result="BackgroundImageFix"/><feColorMatrix in="SourceAlpha" values="0 0 0 0 0 0 0 0 0 0 0 0 0 0 0 0 0 0 127 0" result="hardAlpha"/><feOffset/><feGaussianBlur stdDeviation="1"/><feColorMatrix values="0 0 0 0 0.00392157 0 0 0 0 1 0 0 0 0 0.956863 0 0 0 1 0"/><feBlend in2="BackgroundImageFix" result="effect1_dropShadow_406_36691"/><feBlend in="SourceGraphic" in2="effect1_dropShadow_406_36691" result="shape"/></filter><filter id="f" x="-1.036" y="14.258" width="36.402" height="23.544" filterUnits="userSpaceOnUse" color-interpolation-filters="sRGB"><feFlood flood-opacity="0" result="BackgroundImageFix"/><feColorMatrix in="SourceAlpha" values="0 0 0 0 0 0 0 0 0 0 0 0 0 0 0 0 0 0 127 0" result="hardAlpha"/><feOffset/><feGaussianBlur stdDeviation="1"/><feColorMatrix values="0 0 0 0 0.00392157 0 0 0 0 1 0 0 0 0 0.956863 0 0 0 1 0"/><feBlend in2="BackgroundImageFix" result="effect1_dropShadow_406_36691"/><feBlend in="SourceGraphic" in2="effect1_dropShadow_406_36691" result="shape"/></filter><filter id="g" x="-1.545" y="23.023" width="32.434" height="18.276" filterUnits="userSpaceOnUse" color-interpolation-filters="sRGB"><feFlood flood-opacity="0" result="BackgroundImageFix"/><feColorMatrix in="SourceAlpha" values="0 0 0 0 0 0 0 0 0 0 0 0 0 0 0 0 0 0 127 0" result="hardAlpha"/><feOffset/><feGaussianBlur stdDeviation="1"/><feColorMatrix values="0 0 0 0 0.00392157 0 0 0 0 1 0 0 0 0 0.956863 0 0 0 1 0"/><feBlend in2="BackgroundImageFix" result="effect1_dropShadow_406_36691"/><feBlend in="SourceGraphic" in2="effect1_dropShadow_406_36691" result="shape"/></filter><clipPath id="a"><path fill="#fff" d="M0 0h40v40H0z"/></clipPath></defs></svg>
